<svg width="428" height="562" viewBox="0 0 428 562" fill="none" xmlns="http://www.w3.org/2000/svg">
<g clip-path="url(#clip0_29_2)">
<path d="M63 129.957C28.2061 129.957 2.52456e-06 101.079 5.63877e-06 65.457C0.000134661 29.8347 28.2061 0.956998 63 0.957001C79.3783 0.957003 94.296 7.35681 105.5 17.8457C116.704 7.35681 131.622 0.957007 148 0.957008C169.28 0.957011 188.094 11.7592 199.5 28.2988C210.906 11.7592 229.721 0.957015 251 0.957017C271.079 0.95702 288.964 10.5751 300.5 25.5557C312.036 10.5751 329.921 0.957024 350 0.957026C384.794 0.957031 413 29.8348 413 65.457C413 101.079 384.794 129.957 350 129.957C329.921 129.957 312.036 120.34 300.5 105.359C288.964 120.34 271.079 129.957 251 129.957C229.721 129.957 210.906 119.156 199.5 102.617C188.094 119.156 169.279 129.957 148 129.957C131.622 129.957 116.704 123.558 105.5 113.069C94.2961 123.558 79.3782 129.957 63 129.957Z" fill="#F8E3E2"/>
</g>
<rect y="55" width="413" height="451" fill="#F8E3E2"/>
<g clip-path="url(#clip1_29_2)">
<path d="M350 431.045C384.794 431.045 413 459.923 413 495.545C413 531.167 384.794 560.045 350 560.045C333.622 560.045 318.704 553.645 307.5 543.156C296.296 553.645 281.378 560.045 265 560.045C243.72 560.045 224.906 549.243 213.5 532.703C202.094 549.243 183.28 560.045 162 560.045C141.921 560.045 124.036 550.427 112.5 535.446C100.964 550.427 83.0792 560.045 63 560.045C28.2061 560.045 0.000112781 531.167 0 495.545C0 459.923 28.2061 431.045 63 431.045C83.079 431.045 100.964 440.662 112.5 455.643C124.036 440.662 141.921 431.045 162 431.045C183.279 431.045 202.094 441.846 213.5 458.385C224.906 441.846 243.721 431.045 265 431.045C281.378 431.045 296.296 437.444 307.5 447.933C318.704 437.444 333.622 431.045 350 431.045Z" fill="#F8E3E2"/>
</g>
<defs>
<clipPath id="clip0_29_2">
<rect width="413" height="55" fill="white" transform="translate(413 55) rotate(-180)"/>
</clipPath>
<clipPath id="clip1_29_2">
<rect width="428" height="56" fill="white" transform="translate(0 506)"/>
</clipPath>
</defs>
</svg>
